<svg width="70" height="70" viewBox="0 0 70 70" fill="none" xmlns="http://www.w3.org/2000/svg">
<path d="M17.1462 42.476C17.1462 41.7489 17.6471 41.2319 18.358 41.2319C18.9235 41.2319 19.279 41.5227 19.6991 42.3467C20.5392 44.0755 22.2196 45.045 24.417 45.045C27.3091 45.045 29.1511 43.4616 29.1511 40.9895C29.1511 38.5174 27.2607 36.8532 24.4493 36.8532H22.4296C21.6864 36.8532 21.1371 36.32 21.1371 35.6253C21.1371 34.9144 21.6541 34.4135 22.4296 34.4135H24.3362C26.6952 34.4135 28.4078 32.8139 28.4078 30.6004C28.4078 28.3868 26.7436 26.9004 24.2716 26.9004C22.3489 26.9004 20.8947 27.8536 20.2484 29.5178C19.9253 30.4065 19.5213 30.7458 18.8912 30.7458C18.148 30.7458 17.6633 30.2126 17.6633 29.4047C17.6633 26.9004 20.3615 24.4768 24.3362 24.4768C28.3755 24.4768 31.2515 26.8842 31.2515 30.2449C31.2515 32.6847 29.4257 35.0113 27.1799 35.3991V35.5607C29.9105 35.8676 31.9947 38.2589 31.9947 41.038C31.9947 44.8188 28.8602 47.4686 24.3685 47.4686C20.1999 47.4686 17.1462 44.948 17.1462 42.476ZM36.3249 44.6087V27.3366C36.3249 25.6239 37.0681 24.9453 38.9262 24.9453H43.4018C49.7677 24.9453 53.08 28.71 53.08 35.9807C53.08 43.2354 49.7677 47 43.4018 47H38.9262C37.0681 47 36.3249 46.3214 36.3249 44.6087ZM39.1524 44.4795H43.2725C47.9258 44.4795 50.204 41.6843 50.204 35.9807C50.204 30.2611 47.9097 27.4497 43.2725 27.4497H39.1524V44.4795Z" fill="white" style="fill:white;fill-opacity:1;"/>
</svg>
