<svg width="70" height="70" viewBox="0 0 70 70" fill="none" xmlns="http://www.w3.org/2000/svg">
<path d="M23.4314 47.21C22.6235 47.21 22.0903 46.7415 22.0903 45.9982C22.0903 45.6751 22.1711 45.3681 22.3004 44.9803L28.941 26.4156C29.345 25.2846 29.9105 24.7676 30.9445 24.7676C31.9786 24.7676 32.5441 25.2846 32.948 26.4156L39.5887 44.9803C39.7179 45.3358 39.7987 45.6751 39.7987 45.9821C39.7987 46.7415 39.2655 47.21 38.4415 47.21C37.6659 47.21 37.2297 46.8384 36.9227 45.8851L35.0646 40.3755H26.8083L24.9502 45.8851C24.6432 46.8546 24.2069 47.21 23.4314 47.21ZM27.5677 38.0973H34.3052L30.993 28.2737H30.8799L27.5677 38.0973ZM44.6944 47.1616C43.8219 47.1616 43.2887 46.5638 43.2887 45.6105V26.3349C43.2887 25.3816 43.8219 24.7838 44.6944 24.7838C45.5669 24.7838 46.1162 25.3816 46.1162 26.3349V45.6105C46.1162 46.5638 45.5669 47.1616 44.6944 47.1616Z" fill="white" style="fill:white;fill-opacity:1;"/>
</svg>
