<svg width="70" height="70" viewBox="0 0 70 70" fill="none" xmlns="http://www.w3.org/2000/svg">
<path d="M37.7168 18.6952C37.069 18.4566 36.3504 18.7882 36.1117 19.436C35.8731 20.0838 36.2047 20.8024 36.8525 21.0411L37.2846 19.8681L37.7168 18.6952ZM45.5275 30.4724L46.7761 30.5308L46.7764 30.5239L45.5275 30.4724ZM45.7178 31.0192L44.7768 31.8421L44.7851 31.8515L45.7178 31.0192ZM49.6146 35.3856L50.553 34.5598L50.5472 34.5533L49.6146 35.3856ZM49.6146 37.4341L48.6762 36.6083L48.6713 36.614L49.6146 37.4341ZM48.1685 39.0975L47.2252 38.2774L47.2213 38.2818L48.1685 39.0975ZM47.2324 41.5849L48.4823 41.6016L48.4823 41.5984L47.2324 41.5849ZM47.1791 45.574L45.9292 45.5573L45.9291 45.5657V45.574H47.1791ZM29.2397 44.0723L27.9897 44.0696V44.0723H29.2397ZM28.372 42.6784L27.8218 43.8008L27.8294 43.8045L28.372 42.6784ZM20.6011 27.8618L21.7911 28.2445L21.7955 28.2307L21.7996 28.2169L20.6011 27.8618ZM25.4094 22.8747C25.9513 22.447 26.0439 21.661 25.6162 21.1191C25.1885 20.5772 24.4025 20.4846 23.8606 20.9123L24.635 21.8935L25.4094 22.8747ZM25.0993 23.0178L26.2018 22.4287L26.1984 22.4226L25.0993 23.0178ZM24.3458 20.1608H23.0958V20.1733L23.096 20.1858L24.3458 20.1608ZM36.5692 23.0178L37.6738 23.6029L37.6751 23.6004L36.5692 23.0178ZM37.2846 20.1608L38.5346 20.1689V20.1608H37.2846ZM37.2846 19.8681L36.8525 21.0411C38.2166 21.5436 40.1623 22.458 41.7189 23.9725C43.2436 25.456 44.3985 27.5113 44.2785 30.4209L45.5275 30.4724L46.7764 30.5239C46.9305 26.7875 45.4062 24.0721 43.4622 22.1806C41.55 20.3202 39.2373 19.2554 37.7168 18.6952L37.2846 19.8681ZM45.5275 30.4724L44.2788 30.414C44.2545 30.935 44.4317 31.4474 44.7768 31.8421L45.7178 31.0192L46.6587 30.1962C46.741 30.2904 46.7817 30.4105 46.7761 30.5308L45.5275 30.4724ZM45.7178 31.0192L44.7851 31.8515L48.682 36.2179L49.6146 35.3856L50.5472 34.5533L46.6504 30.1868L45.7178 31.0192ZM49.6146 35.3856L48.6763 36.2114C48.7225 36.264 48.75 36.3344 48.75 36.4098H50H51.25C51.25 35.7299 51.0032 35.0714 50.553 34.5598L49.6146 35.3856ZM50 36.4098H48.75C48.75 36.4852 48.7225 36.5557 48.6763 36.6083L49.6146 37.4341L50.553 38.2599C51.0032 37.7483 51.25 37.0898 51.25 36.4098H50ZM49.6146 37.4341L48.6713 36.614L47.2252 38.2774L48.1685 39.0975L49.1119 39.9176L50.558 38.2542L49.6146 37.4341ZM48.1685 39.0975L47.2213 38.2818C46.4336 39.1965 45.9955 40.3629 45.9824 41.5714L47.2324 41.5849L48.4823 41.5984C48.489 40.9761 48.7147 40.3788 49.1157 39.9132L48.1685 39.0975ZM47.2324 41.5849L45.9825 41.5682L45.9292 45.5573L47.1791 45.574L48.429 45.5907L48.4823 41.6016L47.2324 41.5849ZM47.1791 45.574H45.9291C45.9291 45.8599 45.8167 46.1312 45.6213 46.3289L46.5103 47.2076L47.3994 48.0863C48.0603 47.4175 48.4291 46.5136 48.4291 45.574H47.1791ZM46.5103 47.2076L45.6213 46.3289C45.4263 46.5262 45.165 46.6343 44.8958 46.6343V47.8843V49.1343C45.8376 49.1343 46.7379 48.7556 47.3994 48.0863L46.5103 47.2076ZM44.8958 47.8843V46.6343H43.2822V47.8843V49.1343H44.8958V47.8843ZM43.2822 47.8843V46.6343C42.1385 46.6343 41.0446 47.0941 40.2404 47.9078L41.1295 48.7865L42.0185 49.6652C42.3562 49.3235 42.811 49.1343 43.2822 49.1343V47.8843ZM41.1295 48.7865L40.2404 47.9078C39.4367 48.721 38.9878 49.8209 38.9878 50.9647H40.2378H41.4878C41.4878 50.4745 41.6803 50.0074 42.0185 49.6652L41.1295 48.7865ZM40.2378 50.9647H38.9878V54.2299H40.2378H41.4878V50.9647H40.2378ZM40.2378 54.2299H38.9878C38.9878 54.1073 39.0357 53.9869 39.1258 53.8958L40.0148 54.7744L40.9039 55.6531C41.2794 55.2732 41.4878 54.761 41.4878 54.2299H40.2378ZM40.0148 54.7744L39.1258 53.8958C39.2163 53.8042 39.3422 53.75 39.4766 53.75V55V56.25C40.0148 56.25 40.5279 56.0336 40.9039 55.6531L40.0148 54.7744ZM39.4766 55V53.75H30.0008V55V56.25H39.4766V55ZM30.0008 55V53.75C30.1353 53.75 30.2612 53.8042 30.3517 53.8958L29.4626 54.7744L28.5736 55.6531C28.9496 56.0336 29.4627 56.25 30.0008 56.25V55ZM29.4626 54.7744L30.3517 53.8958C30.4417 53.9869 30.4897 54.1073 30.4897 54.2299H29.2397H27.9897C27.9897 54.761 28.1981 55.2732 28.5736 55.6531L29.4626 54.7744ZM29.2397 54.2299H30.4897V44.0723H29.2397H27.9897V54.2299H29.2397ZM29.2397 44.0723L30.4897 44.075C30.4908 43.5498 30.3446 43.034 30.0667 42.5876L29.0055 43.2481L27.9443 43.9087C27.9736 43.9558 27.9898 44.0116 27.9897 44.0696L29.2397 44.0723ZM29.0055 43.2481L30.0667 42.5876C29.7887 42.141 29.3898 41.7813 28.9147 41.5524L28.372 42.6784L27.8294 43.8045C27.8747 43.8263 27.9151 43.8618 27.9443 43.9087L29.0055 43.2481ZM28.372 42.6784L28.9223 41.5561C27.6377 40.9263 25.1795 39.5152 23.3896 37.2835C21.6443 35.1074 20.5305 32.1638 21.7911 28.2445L20.6011 27.8618L19.4111 27.479C17.848 32.3389 19.2687 36.1413 21.4393 38.8476C23.5653 41.4983 26.4044 43.106 27.8218 43.8008L28.372 42.6784ZM20.6011 27.8618L21.7996 28.2169C22.4274 26.0983 23.6898 24.2319 25.4094 22.8747L24.635 21.8935L23.8606 20.9123C21.733 22.5915 20.1761 24.8964 19.4026 27.5066L20.6011 27.8618ZM27.5424 29.402H28.7924C28.7924 27.8463 28.3193 26.4631 27.7744 25.3051C27.2648 24.2223 26.553 23.0861 26.2017 22.4287L25.0993 23.0178L23.9968 23.607C24.5056 24.5591 25.0153 25.3134 25.5123 26.3696C25.974 27.3505 26.2924 28.3546 26.2924 29.402H27.5424ZM25.0993 23.0178L26.1984 22.4226C25.8187 21.7214 25.6116 20.9368 25.5955 20.1358L24.3458 20.1608L23.096 20.1858C23.12 21.3845 23.4299 22.5602 24.0001 23.6131L25.0993 23.0178ZM24.3458 20.1608H25.5958C25.5958 17.5125 28.0352 15.25 30.8076 15.25V14V12.75C26.8213 12.75 23.0958 15.9706 23.0958 20.1608H24.3458ZM34.126 29.402H35.376C35.376 28.3557 35.6957 27.3522 36.1586 26.3704C36.3895 25.8807 36.6488 25.4109 36.913 24.9487C37.1677 24.5032 37.4482 24.029 37.6738 23.6029L36.5692 23.0178L35.4646 22.4328C35.264 22.8115 35.026 23.2123 34.7426 23.708C34.4688 24.187 34.1707 24.7245 33.8973 25.3043C33.3517 26.4615 32.876 27.8452 32.876 29.402H34.126ZM36.5692 23.0178L37.6751 23.6004C38.2322 22.543 38.5268 21.3655 38.5346 20.1689L37.2846 20.1608L36.0347 20.1526C36.0295 20.9498 35.8331 21.7332 35.4633 22.4353L36.5692 23.0178ZM37.2846 20.1608H38.5346C38.5346 15.9761 34.853 12.75 30.8304 12.75V14V15.25C33.6274 15.25 36.0346 17.507 36.0346 20.1608H37.2846ZM27.3141 29.2787V30.5287H34.6055V29.2787V28.0287H27.3141V29.2787ZM34.6055 29.2787V30.5287C34.4857 30.5287 34.4135 30.4345 34.4135 30.3492H35.6635H36.9135C36.9135 29.0815 35.894 28.0287 34.6055 28.0287V29.2787ZM35.6635 30.3492H34.4135V31.3195H35.6635H36.9135V30.3492H35.6635ZM35.6635 31.3195H34.4135C34.4135 31.2342 34.4857 31.1399 34.6055 31.1399V32.3899V33.6399C35.894 33.6399 36.9135 32.5872 36.9135 31.3195H35.6635ZM34.6055 32.3899V31.1399H27.3141V32.3899V33.6399H34.6055V32.3899ZM27.3141 32.3899V31.1399C27.434 31.1399 27.5062 31.2342 27.5062 31.3195H26.2562H25.0062C25.0062 32.5872 26.0257 33.6399 27.3141 33.6399V32.3899ZM26.2562 31.3195H27.5062V30.3492H26.2562H25.0062V31.3195H26.2562ZM26.2562 30.3492H27.5062C27.5062 30.4345 27.434 30.5287 27.3141 30.5287V29.2787V28.0287C26.0257 28.0287 25.0062 29.0815 25.0062 30.3492H26.2562ZM33.3193 32.3899H32.0693V34.0225H33.3193H34.5693V32.3899H33.3193ZM33.3193 34.0225H32.0693C32.0693 34.095 32.046 34.1838 31.9155 34.2858C31.771 34.3985 31.4694 34.5361 30.9598 34.5361V35.7861V37.0361C32.7981 37.0361 34.5693 35.9614 34.5693 34.0225H33.3193ZM30.9598 35.7861V34.5361C30.3469 34.5361 30.0686 34.3876 29.9686 34.3064C29.8958 34.2473 29.8504 34.1761 29.8504 34.0225H28.6004H27.3504C27.3504 34.8624 27.6855 35.6729 28.3928 36.2473C29.0729 36.7994 29.9744 37.0361 30.9598 37.0361V35.7861ZM28.6004 34.0225H29.8504V32.3899H28.6004H27.3504V34.0225H28.6004Z" fill="white" style="fill:white;fill-opacity:1;"/>
</svg>
