<svg width="70" height="70" viewBox="0 0 70 70" fill="none" xmlns="http://www.w3.org/2000/svg">
<path d="M52 45.7778C52 46.6324 51.6648 47.4519 51.0681 48.0562C50.4714 48.6605 49.6621 49 48.8182 49H20.1818C19.3379 49 18.5286 48.6605 17.9319 48.0562C17.3352 47.4519 17 46.6324 17 45.7778V28.0556C17 27.201 17.3352 26.3814 17.9319 25.7771C18.5286 25.1728 19.3379 24.8333 20.1818 24.8333H26.5455L29.7273 20H39.2727L42.4545 24.8333H48.8182C49.6621 24.8333 50.4714 25.1728 51.0681 25.7771C51.6648 26.3814 52 27.201 52 28.0556V45.7778Z" stroke="white" style="stroke:white;stroke-opacity:1;" stroke-width="2.5" stroke-linecap="round" stroke-linejoin="round"/>
<path d="M34.5 42.5556C38.0145 42.5556 40.8636 39.6703 40.8636 36.1111C40.8636 32.5519 38.0145 29.6667 34.5 29.6667C30.9855 29.6667 28.1364 32.5519 28.1364 36.1111C28.1364 39.6703 30.9855 42.5556 34.5 42.5556Z" stroke="white" style="stroke:white;stroke-opacity:1;" stroke-width="2.5" stroke-linecap="round" stroke-linejoin="round"/>
</svg>
