<svg width="70" height="70" viewBox="0 0 70 70" fill="none" xmlns="http://www.w3.org/2000/svg">
<path d="M48.7084 38.8281C46.5574 38.8281 44.5886 39.5208 43.0209 40.7239L42.1459 39.7031C39.8855 37.0416 39.8855 33.1406 42.1459 30.4791L43.1303 29.3489C44.698 30.4791 46.6303 31.1718 48.7084 31.1718C54.0313 31.1718 58.3334 26.7968 58.3334 21.4375C58.3334 16.0416 54.0313 11.6666 48.7084 11.6666C43.422 11.6666 39.0834 16.0416 39.0834 21.401C39.0834 23.3333 39.6303 25.1198 40.5782 26.651L39.3751 27.7083C36.7501 30.0052 32.8855 30.0052 30.2605 27.7083L29.2761 26.8698C30.297 25.302 30.9167 23.4427 30.9167 21.4375C30.9167 16.0416 26.6147 11.6666 21.2917 11.6666C16.0053 11.6666 11.6667 16.0416 11.6667 21.401C11.6667 26.7604 16.0053 31.1354 21.2917 31.1354C23.297 31.1354 25.1199 30.5156 26.6876 29.4583L27.5261 30.4427C29.7865 33.1041 29.7865 37.0052 27.5261 39.6666L26.797 40.5416C25.2292 39.4479 23.3334 38.7916 21.2917 38.7916C16.0053 38.8281 11.6667 43.2031 11.6667 48.5989C11.6667 53.9583 16.0053 58.3333 21.2917 58.3333C26.6147 58.3333 30.9167 53.9583 30.9167 48.5989C30.9167 46.6666 30.3334 44.8437 29.349 43.3125L30.2605 42.5104C32.8855 40.2135 36.7501 40.2135 39.3751 42.5104L40.5053 43.4948C39.5938 44.9895 39.0834 46.7395 39.0834 48.5989C39.0834 53.9583 43.422 58.3333 48.7084 58.3333C54.0313 58.3333 58.3334 53.9583 58.3334 48.5989C58.3334 43.2031 54.0313 38.8281 48.7084 38.8281ZM48.7084 13.4531C53.047 13.4531 56.5834 17.026 56.5834 21.4375C56.5834 25.8489 53.047 29.4218 48.7084 29.4218C47.0678 29.4218 45.5365 28.9114 44.2605 28.0364L47.3595 24.3906C47.6511 24.4635 47.9428 24.5364 48.2345 24.5364C49.8386 24.5364 51.1511 23.2239 51.1511 21.5833C51.1511 19.9427 49.8386 18.6302 48.2345 18.6302C46.6303 18.6302 45.3178 19.9427 45.3178 21.5833C45.3178 21.9114 45.3542 22.2031 45.4636 22.4948L41.9272 25.4843C41.2345 24.2812 40.8334 22.8958 40.8334 21.4375C40.8334 17.026 44.3699 13.4531 48.7084 13.4531ZM27.9636 25.6666L24.2084 22.4218C24.2813 22.1302 24.3542 21.8385 24.3542 21.5104C24.3542 19.8698 23.0417 18.5573 21.4376 18.5573C19.8334 18.5573 18.5209 19.8698 18.5209 21.5104C18.5209 23.151 19.8334 24.4635 21.4376 24.4635C21.7292 24.4635 22.0574 24.427 22.3126 24.3177L25.5209 28.1458C24.3178 28.9479 22.8595 29.4218 21.2917 29.4218C16.9532 29.4218 13.4167 25.8489 13.4167 21.4375C13.4167 17.026 16.9532 13.4531 21.2917 13.4531C25.6303 13.4531 29.1667 17.026 29.1667 21.401C29.1667 22.9687 28.7292 24.427 27.9636 25.6666ZM29.1667 48.5989C29.1667 53.0104 25.6303 56.5833 21.2917 56.5833C16.9532 56.5833 13.4167 53.0104 13.4167 48.5989C13.4167 44.1875 16.9532 40.6145 21.2917 40.6145C22.8959 40.6145 24.3907 41.0885 25.6303 41.927L22.3126 45.8645C22.0209 45.7916 21.7292 45.7187 21.4376 45.7187C19.8334 45.7187 18.5209 47.0312 18.5209 48.6718C18.5209 50.3125 19.8334 51.625 21.4376 51.625C23.0417 51.625 24.3542 50.3125 24.3542 48.6718C24.3542 48.3437 24.3178 48.052 24.2084 47.7604L28.0365 44.4427C28.7657 45.6458 29.1667 47.0677 29.1667 48.5989ZM48.7084 56.5468C44.3699 56.5468 40.8334 52.9739 40.8334 48.5625C40.8334 47.1406 41.198 45.7916 41.8542 44.625L45.4636 47.7604C45.3907 48.052 45.3178 48.3437 45.3178 48.6718C45.3178 50.3125 46.6303 51.625 48.2345 51.625C49.8386 51.625 51.1511 50.3125 51.1511 48.6718C51.1511 47.0312 49.8386 45.7187 48.2345 45.7187C47.9428 45.7187 47.6147 45.7552 47.3595 45.8645L44.1511 42.0729C45.4272 41.125 46.9949 40.5781 48.7084 40.5781C53.047 40.5781 56.5834 44.151 56.5834 48.5625C56.5834 52.9739 53.047 56.5468 48.7084 56.5468Z" fill="white" style="fill:white;fill-opacity:1;"/>
</svg>
