<svg width="70" height="70" viewBox="0 0 70 70" fill="none" xmlns="http://www.w3.org/2000/svg">
<path d="M58.7237 28.7839C59.5746 30.5162 60 32.6836 60 35.2982C60 37.9128 59.5088 40.253 58.5262 42.3189C57.5436 44.3845 56.1966 46.0143 54.4851 47.2085C52.7736 48.4027 50.825 48.9997 48.6386 48.9997C47.2642 49.0048 46.0276 48.815 44.9285 48.4303C43.8294 48.0457 42.825 47.569 41.9155 47.0004C41.006 46.4318 40.1617 45.8629 39.3821 45.2938C38.6025 44.7246 37.857 44.249 37.1455 43.8668C36.4342 43.4848 35.719 43.2936 34.9999 43.2936C34.2808 43.2936 33.5656 43.4845 32.8543 43.8668C32.1431 44.249 31.3976 44.7233 30.618 45.29C29.7927 45.8873 28.9477 46.4565 28.0846 46.9967C27.1753 47.5677 26.1709 48.0443 25.0718 48.4266C23.9727 48.8089 22.7395 49 21.3717 49C19.1841 49 17.233 48.4027 15.5189 47.2088C13.8048 46.0148 12.4567 44.385 11.4741 42.3192C10.4915 40.2533 10.0001 37.9131 10.0001 35.2985C9.9935 32.6948 10.4174 30.525 11.2717 28.7892C12.1257 27.0534 13.3226 25.6651 14.8618 24.6243C16.4011 23.5838 18.2127 22.8032 20.2976 22.2822C22.3825 21.7613 24.6706 21.4175 27.163 21.2505C29.6554 21.0835 32.2669 21 35.0004 21C37.734 21 40.3463 21.0819 42.8382 21.2455C45.3303 21.409 47.6187 21.7513 49.7035 22.2722C51.7879 22.7928 53.5998 23.5754 55.139 24.6193C56.6785 25.6632 57.8736 27.0515 58.7242 28.7841L58.7237 28.7839ZM55.4083 40.5804C56.0396 39.0808 56.3551 37.3201 56.3551 35.2985C56.3551 32.8631 55.8721 30.9332 54.9063 29.5092C53.9405 28.0851 52.5375 27.0266 50.6977 26.3336C48.8576 25.6407 46.6182 25.1906 43.9791 24.983C41.3399 24.7754 38.3471 24.6718 35.0007 24.6718C31.6543 24.6718 28.6623 24.7754 26.0242 24.983C23.3861 25.1906 21.1466 25.6407 19.3055 26.3336C17.4644 27.0266 16.0608 28.0851 15.0951 29.5092C14.1293 30.9332 13.6463 32.8631 13.6463 35.2985C13.6463 37.3201 13.9618 39.0808 14.5931 40.5804C15.2242 42.0801 16.1134 43.2417 17.2606 44.0656C18.4079 44.8895 19.7628 45.3014 21.326 45.3014C22.505 45.3065 23.5549 45.1167 24.476 44.732C25.3846 44.3541 26.2484 43.875 27.0515 43.3037C27.8477 42.7364 28.6383 42.1712 29.4232 41.6087C30.2081 41.0462 31.05 40.572 31.9501 40.1865C32.8501 39.8011 33.8616 39.6083 35.0004 39.6083C36.1392 39.6083 37.1571 39.8011 38.0534 40.1865C38.9422 40.5679 39.7876 41.0447 40.575 41.6087C41.3594 42.1712 42.15 42.7362 42.9462 43.3037C43.7424 43.871 44.6014 44.3458 45.5236 44.7281C46.4457 45.1103 47.4996 45.3014 48.6852 45.3014C50.2418 45.3014 51.5933 44.8895 52.7405 44.0656C53.8877 43.2417 54.7767 42.0801 55.408 40.5804H55.4083Z" fill="white" style="fill:white;fill-opacity:1;"/>
</svg>
